<?xml version="1.0" encoding="UTF-8" standalone="no"?>
<!-- Created with Inkscape (http://www.inkscape.org/) -->

<svg
   version="1.1"
   id="svg2"
   xml:space="preserve"
   width="203.54668"
   height="94.493332"
   viewBox="0 0 204 94"
   sodipodi:docname="qcr_logo_light.svg"
   inkscape:version="1.1 (1:1.1+202105261517+ce6663b3b7)"
   xmlns:inkscape="http://www.inkscape.org/namespaces/inkscape"
   xmlns:sodipodi="http://sodipodi.sourceforge.net/DTD/sodipodi-0.dtd"
   xmlns="http://www.w3.org/2000/svg"
   xmlns:svg="http://www.w3.org/2000/svg"><defs
     id="defs6" /><sodipodi:namedview
     id="namedview4"
     pagecolor="#ffffff"
     bordercolor="#666666"
     borderopacity="1.0"
     inkscape:pageshadow="2"
     inkscape:pageopacity="0.0"
     inkscape:pagecheckerboard="true"
     showgrid="false"
     inkscape:zoom="7.2808853"
     inkscape:cx="91.266374"
     inkscape:cy="47.247002"
     inkscape:window-width="1920"
     inkscape:window-height="1043"
     inkscape:window-x="0"
     inkscape:window-y="347"
     inkscape:window-maximized="1"
     inkscape:current-layer="g8" /><g
     id="g8"
     inkscape:groupmode="layer"
     inkscape:label="ink_ext_XXXXXX"
     transform="matrix(1.3333333,0,0,-1.3333333,0,94.493333)"><g
       id="g10"
       transform="scale(0.1)"><path
         d="m 879.496,608.496 c -1.449,2.324 -3.258,4.363 -5.426,6.121 -2.168,1.758 -4.625,3.125 -7.363,4.113 -2.738,0.977 -5.605,1.465 -8.605,1.465 -5.477,0 -10.125,-1.054 -13.95,-3.175 -3.824,-2.118 -6.922,-4.961 -9.297,-8.524 -2.378,-3.562 -4.105,-7.617 -5.195,-12.168 -1.082,-4.551 -1.625,-9.25 -1.625,-14.101 0,-4.649 0.543,-9.168 1.625,-13.567 1.09,-4.39 2.817,-8.347 5.195,-11.851 2.375,-3.516 5.473,-6.34 9.297,-8.45 3.825,-2.121 8.473,-3.183 13.95,-3.183 7.445,0 13.257,2.273 17.445,6.828 4.183,4.539 6.734,10.535 7.668,17.976 h 23.558 c -0.617,-6.921 -2.218,-13.171 -4.8,-18.757 -2.586,-5.578 -5.996,-10.332 -10.231,-14.258 -4.238,-3.93 -9.199,-6.926 -14.883,-8.996 -5.683,-2.063 -11.933,-3.098 -18.757,-3.098 -8.469,0 -16.09,1.477 -22.86,4.414 -6.765,2.949 -12.476,7.004 -17.129,12.168 -4.648,5.168 -8.215,11.242 -10.691,18.215 -2.484,6.98 -3.723,14.492 -3.723,22.559 0,8.261 1.239,15.937 3.723,23.015 2.476,7.071 6.043,13.254 10.691,18.516 4.653,5.273 10.364,9.406 17.129,12.402 6.77,3 14.391,4.492 22.86,4.492 6.101,0 11.863,-0.879 17.289,-2.625 5.422,-1.757 10.277,-4.316 14.57,-7.675 4.285,-3.36 7.824,-7.52 10.613,-12.481 2.793,-4.961 4.547,-10.644 5.274,-17.051 h -23.567 c -0.406,2.793 -1.34,5.352 -2.785,7.676"
         style="fill:#ffffff;fill-opacity:1;fill-rule:nonzero;stroke:none"
         id="path12" /><path
         d="m 967.305,588.73 c -2.633,2.891 -6.645,4.344 -12.012,4.344 -3.52,0 -6.434,-0.594 -8.762,-1.785 -2.324,-1.191 -4.183,-2.656 -5.578,-4.414 -1.394,-1.758 -2.375,-3.621 -2.941,-5.586 -0.574,-1.965 -0.91,-3.711 -1.012,-5.266 h 35.805 c -1.035,5.579 -2.867,9.817 -5.5,12.707 z m -24.879,-42.16 c 3.304,-3.203 8.058,-4.8 14.262,-4.8 4.437,0 8.265,1.113 11.468,3.328 3.199,2.226 5.168,4.582 5.891,7.058 h 19.375 c -3.102,-9.617 -7.852,-16.48 -14.258,-20.613 -6.41,-4.141 -14.16,-6.199 -23.254,-6.199 -6.305,0 -11.984,1.004 -17.051,3.015 -5.062,2.024 -9.347,4.883 -12.867,8.606 -3.508,3.719 -6.222,8.164 -8.133,13.328 -1.914,5.168 -2.867,10.852 -2.867,17.051 0,5.996 0.977,11.574 2.946,16.738 1.957,5.164 4.75,9.641 8.371,13.406 3.613,3.774 7.925,6.75 12.941,8.918 5.012,2.168 10.563,3.25 16.66,3.25 6.82,0 12.762,-1.316 17.828,-3.953 5.059,-2.637 9.219,-6.172 12.477,-10.613 3.258,-4.445 5.605,-9.516 7.051,-15.188 1.445,-5.683 1.961,-11.632 1.55,-17.832 H 937 c 0.313,-7.129 2.117,-12.297 5.426,-15.5"
         style="fill:#ffffff;fill-opacity:1;fill-rule:nonzero;stroke:none"
         id="path14" /><path
         d="m 1026.75,607.488 v -11.16 h 0.46 c 2.79,4.649 6.41,8.035 10.85,10.156 4.44,2.11 8.99,3.172 13.64,3.172 5.89,0 10.72,-0.801 14.49,-2.398 3.77,-1.606 6.74,-3.828 8.92,-6.66 2.16,-2.856 3.69,-6.313 4.57,-10.395 0.87,-4.082 1.31,-8.601 1.31,-13.562 v -49.289 h -22.01 v 45.265 c 0,6.61 -1.03,11.543 -3.1,14.793 -2.06,3.266 -5.73,4.887 -11,4.887 -6,0 -10.34,-1.777 -13.02,-5.344 -2.69,-3.562 -4.03,-9.433 -4.03,-17.598 v -42.003 h -22.01 v 80.136 h 20.93"
         style="fill:#ffffff;fill-opacity:1;fill-rule:nonzero;stroke:none"
         id="path16" /><path
         d="m 1139.73,607.488 v -14.722 h -16.11 v -39.68 c 0,-3.723 0.62,-6.199 1.86,-7.441 1.24,-1.243 3.72,-1.868 7.44,-1.868 1.24,0 2.42,0.063 3.56,0.157 1.14,0.109 2.22,0.265 3.25,0.468 v -17.05 c -1.85,-0.309 -3.92,-0.516 -6.19,-0.614 -2.28,-0.105 -4.5,-0.156 -6.67,-0.156 -3.41,0 -6.64,0.227 -9.68,0.691 -3.06,0.469 -5.74,1.372 -8.07,2.715 -2.32,1.34 -4.16,3.254 -5.5,5.735 -1.34,2.48 -2.02,5.73 -2.02,9.765 v 47.278 h -13.33 v 14.722 h 13.33 v 24.024 h 22.02 v -24.024 h 16.11"
         style="fill:#ffffff;fill-opacity:1;fill-rule:nonzero;stroke:none"
         id="path18" /><path
         d="m 1169.19,607.488 v -14.883 h 0.31 c 1.03,2.485 2.42,4.778 4.18,6.899 1.76,2.117 3.77,3.926 6.04,5.43 2.28,1.492 4.71,2.656 7.29,3.484 2.58,0.828 5.27,1.238 8.06,1.238 1.45,0 3.05,-0.261 4.81,-0.769 V 588.43 c -1.04,0.203 -2.28,0.379 -3.72,0.535 -1.46,0.156 -2.85,0.234 -4.19,0.234 -4.03,0 -7.44,-0.676 -10.23,-2.011 -2.79,-1.348 -5.04,-3.184 -6.74,-5.508 -1.71,-2.325 -2.92,-5.039 -3.64,-8.133 -0.73,-3.109 -1.09,-6.469 -1.09,-10.078 v -36.117 h -22.01 v 80.136 h 20.93"
         style="fill:#ffffff;fill-opacity:1;fill-rule:nonzero;stroke:none"
         id="path20" /><path
         d="m 1257.3,588.73 c -2.63,2.891 -6.64,4.344 -12.01,4.344 -3.52,0 -6.43,-0.594 -8.76,-1.785 -2.33,-1.191 -4.19,-2.656 -5.58,-4.414 -1.4,-1.758 -2.38,-3.621 -2.94,-5.586 -0.58,-1.965 -0.91,-3.711 -1.01,-5.266 h 35.8 c -1.03,5.579 -2.87,9.817 -5.5,12.707 z m -24.88,-42.16 c 3.31,-3.203 8.06,-4.8 14.26,-4.8 4.44,0 8.27,1.113 11.47,3.328 3.2,2.226 5.17,4.582 5.89,7.058 h 19.38 c -3.1,-9.617 -7.86,-16.48 -14.26,-20.613 -6.41,-4.141 -14.16,-6.199 -23.25,-6.199 -6.31,0 -11.99,1.004 -17.05,3.015 -5.07,2.024 -9.36,4.883 -12.87,8.606 -3.51,3.719 -6.23,8.164 -8.14,13.328 -1.91,5.168 -2.86,10.852 -2.86,17.051 0,5.996 0.97,11.574 2.94,16.738 1.96,5.164 4.75,9.641 8.37,13.406 3.61,3.774 7.93,6.75 12.95,8.918 5.01,2.168 10.56,3.25 16.66,3.25 6.82,0 12.75,-1.316 17.82,-3.953 5.06,-2.637 9.22,-6.172 12.48,-10.613 3.26,-4.445 5.6,-9.516 7.05,-15.188 1.45,-5.683 1.96,-11.632 1.55,-17.832 H 1227 c 0.31,-7.129 2.11,-12.297 5.42,-15.5"
         style="fill:#ffffff;fill-opacity:1;fill-rule:nonzero;stroke:none"
         id="path22" /><path
         d="m 1328.52,592.766 v 14.722 h 13.18 v 6.203 c 0,7.129 2.22,12.957 6.66,17.508 4.45,4.551 11.16,6.828 20.15,6.828 1.97,0 3.93,-0.078 5.89,-0.234 1.97,-0.156 3.88,-0.285 5.74,-0.391 v -16.425 c -2.58,0.3 -5.27,0.457 -8.06,0.457 -3,0 -5.14,-0.692 -6.43,-2.09 -1.3,-1.395 -1.94,-3.75 -1.94,-7.051 v -4.805 h 15.19 v -14.722 h -15.19 v -65.414 h -22.01 v 65.414 h -13.18"
         style="fill:#ffffff;fill-opacity:1;fill-rule:nonzero;stroke:none"
         id="path24" /><path
         d="m 1406.79,557.969 c 0.63,-3.059 1.68,-5.789 3.18,-8.211 1.5,-2.434 3.49,-4.375 5.97,-5.824 2.48,-1.446 5.58,-2.164 9.3,-2.164 3.72,0 6.85,0.718 9.38,2.164 2.53,1.449 4.54,3.39 6.04,5.824 1.5,2.422 2.56,5.152 3.18,8.211 0.62,3.047 0.93,6.172 0.93,9.375 0,3.203 -0.31,6.355 -0.93,9.453 -0.62,3.105 -1.68,5.84 -3.18,8.215 -1.5,2.383 -3.51,4.312 -6.04,5.816 -2.53,1.496 -5.66,2.246 -9.38,2.246 -3.72,0 -6.82,-0.75 -9.3,-2.246 -2.48,-1.504 -4.47,-3.433 -5.97,-5.816 -1.5,-2.375 -2.55,-5.11 -3.18,-8.215 -0.62,-3.098 -0.92,-6.25 -0.92,-9.453 0,-3.203 0.3,-6.328 0.92,-9.375 z m -19.99,26.816 c 1.96,5.215 4.76,9.656 8.37,13.328 3.62,3.664 7.96,6.504 13.02,8.528 5.06,2.011 10.75,3.015 17.05,3.015 6.31,0 12.01,-1.004 17.13,-3.015 5.11,-2.024 9.48,-4.864 13.1,-8.528 3.61,-3.672 6.4,-8.113 8.37,-13.328 1.96,-5.226 2.94,-11.035 2.94,-17.441 0,-6.406 -0.98,-12.199 -2.94,-17.364 -1.97,-5.167 -4.76,-9.582 -8.37,-13.253 -3.62,-3.661 -7.99,-6.485 -13.1,-8.446 -5.12,-1.965 -10.82,-2.937 -17.13,-2.937 -6.3,0 -11.99,0.972 -17.05,2.937 -5.06,1.961 -9.4,4.785 -13.02,8.446 -3.61,3.671 -6.41,8.086 -8.37,13.253 -1.96,5.165 -2.94,10.958 -2.94,17.364 0,6.406 0.98,12.215 2.94,17.441"
         style="fill:#ffffff;fill-opacity:1;fill-rule:nonzero;stroke:none"
         id="path26" /><path
         d="m 1495.92,607.488 v -14.883 h 0.31 c 1.03,2.485 2.43,4.778 4.18,6.899 1.76,2.117 3.77,3.926 6.05,5.43 2.27,1.492 4.7,2.656 7.28,3.484 2.59,0.828 5.27,1.238 8.06,1.238 1.45,0 3.05,-0.261 4.81,-0.769 V 588.43 c -1.04,0.203 -2.28,0.379 -3.72,0.535 -1.45,0.156 -2.84,0.234 -4.19,0.234 -4.02,0 -7.44,-0.676 -10.23,-2.011 -2.79,-1.348 -5.03,-3.184 -6.74,-5.508 -1.7,-2.325 -2.92,-5.039 -3.64,-8.133 -0.72,-3.109 -1.09,-6.469 -1.09,-10.078 v -36.117 h -22.01 v 80.136 h 20.93"
         style="fill:#ffffff;fill-opacity:1;fill-rule:nonzero;stroke:none"
         id="path28" /><path
         d="m 859.5,437.957 c 5.582,0 9.766,1.242 12.555,3.723 2.793,2.48 4.183,6.511 4.183,12.09 0,5.371 -1.39,9.265 -4.183,11.699 -2.789,2.429 -6.973,3.64 -12.555,3.64 h -26.66 v -31.152 z m 8.684,50.07 c 4.957,0 9.425,-0.8 13.406,-2.402 3.973,-1.609 7.383,-3.801 10.23,-6.594 2.84,-2.793 5.008,-6.011 6.508,-9.683 1.5,-3.672 2.246,-7.621 2.246,-11.86 0,-6.511 -1.367,-12.144 -4.105,-16.89 -2.742,-4.758 -7.207,-8.371 -13.41,-10.852 v -0.312 c 3,-0.832 5.48,-2.09 7.441,-3.797 1.965,-1.703 3.566,-3.723 4.805,-6.047 1.242,-2.324 2.144,-4.883 2.711,-7.676 0.57,-2.781 0.957,-5.574 1.168,-8.367 0.097,-1.762 0.203,-3.82 0.304,-6.203 0.106,-2.371 0.285,-4.805 0.543,-7.278 0.262,-2.476 0.676,-4.832 1.242,-7.058 0.567,-2.219 1.418,-4.102 2.559,-5.656 h -24.336 c -1.344,3.515 -2.168,7.699 -2.48,12.558 -0.309,4.856 -0.778,9.504 -1.399,13.945 -0.824,5.793 -2.582,10.024 -5.265,12.715 -2.688,2.688 -7.082,4.028 -13.176,4.028 H 832.84 v -43.246 h -24.336 v 110.675 h 59.68"
         style="fill:#ffffff;fill-opacity:1;fill-rule:nonzero;stroke:none"
         id="path30" /><path
         d="m 934.051,407.969 c 0.621,-3.059 1.679,-5.789 3.179,-8.211 1.497,-2.434 3.485,-4.375 5.965,-5.824 2.481,-1.446 5.582,-2.164 9.305,-2.164 3.719,0 6.844,0.718 9.375,2.164 2.531,1.449 4.543,3.39 6.043,5.824 1.5,2.422 2.559,5.152 3.18,8.211 0.621,3.047 0.929,6.172 0.929,9.375 0,3.203 -0.308,6.355 -0.929,9.453 -0.621,3.105 -1.68,5.84 -3.18,8.215 -1.5,2.383 -3.512,4.312 -6.043,5.816 -2.531,1.496 -5.656,2.246 -9.375,2.246 -3.723,0 -6.824,-0.75 -9.305,-2.246 -2.48,-1.504 -4.468,-3.433 -5.965,-5.816 -1.5,-2.375 -2.558,-5.11 -3.179,-8.215 -0.621,-3.098 -0.926,-6.25 -0.926,-9.453 0,-3.203 0.305,-6.328 0.926,-9.375 z m -19.996,26.816 c 1.965,5.215 4.758,9.656 8.375,13.328 3.613,3.664 7.953,6.504 13.015,8.528 5.067,2.011 10.75,3.015 17.055,3.015 6.301,0 12.012,-1.004 17.129,-3.015 5.109,-2.024 9.476,-4.864 13.094,-8.528 3.617,-3.672 6.406,-8.113 8.371,-13.328 1.961,-5.226 2.941,-11.035 2.941,-17.441 0,-6.406 -0.98,-12.199 -2.941,-17.364 -1.965,-5.167 -4.754,-9.582 -8.371,-13.253 -3.618,-3.661 -7.985,-6.485 -13.094,-8.446 -5.117,-1.965 -10.828,-2.937 -17.129,-2.937 -6.305,0 -11.988,0.972 -17.055,2.937 -5.062,1.961 -9.402,4.785 -13.015,8.446 -3.617,3.671 -6.41,8.086 -8.375,13.253 -1.961,5.165 -2.946,10.958 -2.946,17.364 0,6.406 0.985,12.215 2.946,17.441"
         style="fill:#ffffff;fill-opacity:1;fill-rule:nonzero;stroke:none"
         id="path32" /><path
         d="m 1061.31,427.109 c -0.73,3.094 -1.86,5.84 -3.41,8.211 -1.55,2.375 -3.49,4.27 -5.82,5.657 -2.32,1.394 -5.14,2.097 -8.44,2.097 -3.21,0 -6,-0.703 -8.37,-2.097 -2.38,-1.387 -4.34,-3.282 -5.89,-5.657 -1.55,-2.371 -2.69,-5.117 -3.42,-8.211 -0.72,-3.105 -1.08,-6.355 -1.08,-9.765 0,-3.313 0.36,-6.516 1.08,-9.61 0.73,-3.105 1.87,-5.839 3.42,-8.214 1.55,-2.379 3.51,-4.266 5.89,-5.665 2.37,-1.382 5.16,-2.085 8.37,-2.085 3.3,0 6.12,0.703 8.44,2.085 2.33,1.399 4.27,3.286 5.82,5.665 1.55,2.375 2.68,5.109 3.41,8.214 0.72,3.094 1.08,6.297 1.08,9.61 0,3.41 -0.36,6.66 -1.08,9.765 z m -35.65,60.918 v -40.3 h 0.3 c 2.69,4.128 6.33,7.144 10.93,9.058 4.6,1.914 9.38,2.871 14.34,2.871 4.03,0 8.01,-0.828 11.94,-2.476 3.92,-1.653 7.46,-4.184 10.61,-7.602 3.16,-3.406 5.71,-7.769 7.68,-13.094 1.96,-5.324 2.94,-11.652 2.94,-18.984 0,-7.344 -0.98,-13.672 -2.94,-18.984 -1.97,-5.332 -4.52,-9.688 -7.68,-13.106 -3.15,-3.406 -6.69,-5.937 -10.61,-7.59 -3.93,-1.66 -7.91,-2.476 -11.94,-2.476 -5.89,0 -11.16,0.926 -15.81,2.781 -4.65,1.863 -8.16,5.012 -10.54,9.465 h -0.31 v -10.238 h -20.92 v 110.675 h 22.01"
         style="fill:#ffffff;fill-opacity:1;fill-rule:nonzero;stroke:none"
         id="path34" /><path
         d="m 1115.86,407.969 c 0.62,-3.059 1.68,-5.789 3.18,-8.211 1.5,-2.434 3.49,-4.375 5.97,-5.824 2.48,-1.446 5.58,-2.164 9.3,-2.164 3.72,0 6.85,0.718 9.37,2.164 2.54,1.449 4.55,3.39 6.05,5.824 1.5,2.422 2.56,5.152 3.18,8.211 0.62,3.047 0.93,6.172 0.93,9.375 0,3.203 -0.31,6.355 -0.93,9.453 -0.62,3.105 -1.68,5.84 -3.18,8.215 -1.5,2.383 -3.51,4.312 -6.05,5.816 -2.52,1.496 -5.65,2.246 -9.37,2.246 -3.72,0 -6.82,-0.75 -9.3,-2.246 -2.48,-1.504 -4.47,-3.433 -5.97,-5.816 -1.5,-2.375 -2.56,-5.11 -3.18,-8.215 -0.62,-3.098 -0.93,-6.25 -0.93,-9.453 0,-3.203 0.31,-6.328 0.93,-9.375 z m -19.99,26.816 c 1.96,5.215 4.75,9.656 8.37,13.328 3.61,3.664 7.96,6.504 13.02,8.528 5.06,2.011 10.75,3.015 17.05,3.015 6.3,0 12.01,-1.004 17.13,-3.015 5.11,-2.024 9.48,-4.864 13.09,-8.528 3.62,-3.672 6.41,-8.113 8.37,-13.328 1.97,-5.226 2.95,-11.035 2.95,-17.441 0,-6.406 -0.98,-12.199 -2.95,-17.364 -1.96,-5.167 -4.75,-9.582 -8.37,-13.253 -3.61,-3.661 -7.98,-6.485 -13.09,-8.446 -5.12,-1.965 -10.83,-2.937 -17.13,-2.937 -6.3,0 -11.99,0.972 -17.05,2.937 -5.06,1.961 -9.41,4.785 -13.02,8.446 -3.62,3.671 -6.41,8.086 -8.37,13.253 -1.97,5.165 -2.95,10.958 -2.95,17.364 0,6.406 0.98,12.215 2.95,17.441"
         style="fill:#ffffff;fill-opacity:1;fill-rule:nonzero;stroke:none"
         id="path36" /><path
         d="m 1231.18,457.488 v -14.722 h -16.11 v -39.68 c 0,-3.723 0.62,-6.199 1.86,-7.441 1.24,-1.243 3.72,-1.868 7.44,-1.868 1.24,0 2.42,0.063 3.56,0.157 1.14,0.109 2.22,0.265 3.25,0.468 v -17.05 c -1.85,-0.313 -3.92,-0.516 -6.19,-0.614 -2.28,-0.105 -4.5,-0.156 -6.67,-0.156 -3.41,0 -6.64,0.227 -9.68,0.691 -3.06,0.469 -5.74,1.372 -8.07,2.715 -2.32,1.34 -4.16,3.254 -5.5,5.735 -1.34,2.48 -2.02,5.73 -2.02,9.765 v 47.278 h -13.33 v 14.722 h 13.33 v 24.028 h 22.02 v -24.028 h 16.11"
         style="fill:#ffffff;fill-opacity:1;fill-rule:nonzero;stroke:none"
         id="path38" /><path
         d="m 1264.35,457.488 v -80.136 h -22.01 v 80.136 z m -22.01,12.407 v 18.132 h 22.01 v -18.132 h -22.01"
         style="fill:#ffffff;fill-opacity:1;fill-rule:nonzero;stroke:none"
         id="path40" /><path
         d="m 1317.05,443.074 c -3.51,0 -6.46,-0.801 -8.83,-2.398 -2.38,-1.606 -4.32,-3.672 -5.81,-6.203 -1.5,-2.539 -2.56,-5.325 -3.18,-8.371 -0.62,-3.043 -0.93,-6.075 -0.93,-9.071 0,-2.89 0.31,-5.84 0.93,-8.828 0.62,-3 1.63,-5.715 3.02,-8.144 1.4,-2.422 3.28,-4.414 5.66,-5.965 2.38,-1.555 5.27,-2.324 8.68,-2.324 5.27,0 9.32,1.472 12.17,4.414 2.83,2.949 4.62,6.902 5.34,11.863 h 21.24 c -1.45,-10.645 -5.58,-18.762 -12.4,-24.336 -6.82,-5.586 -15.55,-8.367 -26.2,-8.367 -5.99,0 -11.49,1.004 -16.5,3.015 -5.02,2.024 -9.28,4.832 -12.79,8.45 -3.52,3.613 -6.26,7.925 -8.22,12.949 -1.96,5.008 -2.94,10.508 -2.94,16.504 0,6.199 0.9,11.953 2.71,17.285 1.81,5.308 4.47,9.91 7.99,13.785 3.51,3.879 7.79,6.906 12.86,9.074 5.06,2.168 10.85,3.25 17.36,3.25 4.75,0 9.32,-0.613 13.72,-1.851 4.39,-1.242 8.31,-3.137 11.78,-5.664 3.46,-2.532 6.27,-5.688 8.45,-9.457 2.16,-3.77 3.4,-8.243 3.71,-13.407 h -21.54 c -1.45,9.2 -6.88,13.797 -16.28,13.797"
         style="fill:#ffffff;fill-opacity:1;fill-rule:nonzero;stroke:none"
         id="path42" /><path
         d="m 1383.31,397.273 c 0.98,-1.707 2.25,-3.101 3.8,-4.187 1.55,-1.082 3.33,-1.887 5.34,-2.402 2.02,-0.52 4.12,-0.774 6.28,-0.774 1.56,0 3.18,0.18 4.89,0.539 1.7,0.36 3.25,0.93 4.64,1.707 1.4,0.774 2.56,1.809 3.5,3.098 0.92,1.289 1.39,2.922 1.39,4.883 0,3.308 -2.2,5.793 -6.59,7.441 -4.39,1.649 -10.51,3.313 -18.36,4.961 -3.21,0.723 -6.34,1.57 -9.38,2.559 -3.05,0.976 -5.77,2.265 -8.14,3.879 -2.38,1.597 -4.29,3.613 -5.74,6.043 -1.45,2.421 -2.16,5.39 -2.16,8.906 0,5.168 1,9.402 3.02,12.715 2.01,3.3 4.67,5.91 7.98,7.824 3.3,1.914 7.02,3.262 11.16,4.031 4.13,0.774 8.37,1.16 12.71,1.16 4.34,0 8.55,-0.41 12.63,-1.238 4.08,-0.828 7.73,-2.227 10.93,-4.18 3.2,-1.972 5.86,-4.582 7.98,-7.832 2.12,-3.254 3.39,-7.363 3.8,-12.324 h -20.93 c -0.3,4.238 -1.91,7.109 -4.8,8.602 -2.9,1.496 -6.3,2.25 -10.23,2.25 -1.24,0 -2.58,-0.082 -4.03,-0.239 -1.45,-0.144 -2.77,-0.488 -3.95,-1.004 -1.19,-0.515 -2.2,-1.257 -3.03,-2.246 -0.83,-0.988 -1.24,-2.304 -1.24,-3.957 0,-1.961 0.73,-3.562 2.18,-4.804 1.44,-1.239 3.33,-2.246 5.65,-3.016 2.32,-0.781 4.99,-1.477 7.98,-2.09 3,-0.625 6.05,-1.301 9.15,-2.019 3.2,-0.727 6.33,-1.606 9.37,-2.637 3.05,-1.035 5.77,-2.402 8.14,-4.106 2.38,-1.707 4.29,-3.828 5.74,-6.355 1.45,-2.527 2.17,-5.652 2.17,-9.375 0,-5.273 -1.06,-9.688 -3.18,-13.254 -2.12,-3.562 -4.88,-6.434 -8.29,-8.602 -3.41,-2.167 -7.32,-3.703 -11.7,-4.57 -4.4,-0.879 -8.87,-1.316 -13.41,-1.316 -4.65,0 -9.2,0.457 -13.64,1.394 -4.44,0.926 -8.4,2.473 -11.86,4.649 -3.46,2.168 -6.3,5.039 -8.52,8.601 -2.23,3.567 -3.44,8.032 -3.64,13.403 h 20.92 c 0,-2.375 0.49,-4.414 1.47,-6.118"
         style="fill:#ffffff;fill-opacity:1;fill-rule:nonzero;stroke:none"
         id="path44" /><path
         d="M -0.00390625,-0.00390625 H 708.66 V 708.66 H -0.00390625 V -0.00390625"
         style="fill:#ffffff;fill-opacity:1;fill-rule:nonzero;stroke:none"
         id="path46" /><path
         d="m 310.699,638.121 c 0,0 0.106,-181.578 0.106,-189.82 0,-13.352 16.328,-74.731 101.117,-74.731 84.789,0 98.308,61.211 98.308,74.25 v 108.524 l -65.039,68.097 V 454.848 c 0,-3.438 0.27,-20.649 -33.488,-20.649 -35.051,0 -35.051,16.973 -35.051,21.094 v 182.699 l -65.953,0.129"
         style="fill:#10427a;fill-opacity:1;fill-rule:nonzero;stroke:none"
         id="path48" /><path
         d="m 451.805,638.063 61.937,-64.141 h 44.813 V 377.527 h 67.66 v 196.395 h 52.277 v 64.16 l -226.687,-0.019"
         style="fill:#10427a;fill-opacity:1;fill-rule:nonzero;stroke:none"
         id="path50" /><path
         d="m 276.453,433.469 55.391,-56.313 H 257.219 L 135.453,503.965 h 71.867 l 19.219,-19.68 c 2.75,6.403 4.594,13.735 4.594,24.723 0,38.898 -32.973,68.668 -70.5,68.668 -37.531,0 -67.7541,-32.051 -67.7541,-69.59 0,-37.539 30.6761,-68.668 69.1211,-68.668 4.109,0 7.871,0.02 12.352,1.367 0.652,0.199 50.281,-53.289 49.91,-53.558 -14.172,-10.071 -41.203,-15.11 -62.262,-15.11 -74.1523,0 -131.8516,63.18 -131.8516,135.063 0,71.867 58.6133,132.289 133.6836,132.289 75.094,0 134.129,-60.879 134.129,-135.039 0.469,-29.762 -14.188,-60.43 -21.508,-70.961"
         style="fill:#10427a;fill-opacity:1;fill-rule:nonzero;stroke:none"
         id="path52" /></g></g></svg>
